<?xml version="1.0" standalone="no"?>
<!DOCTYPE svg PUBLIC "-//W3C//DTD SVG 20010904//EN"
 "http://www.w3.org/TR/2001/REC-SVG-20010904/DTD/svg10.dtd">
<svg version="1.0" xmlns="http://www.w3.org/2000/svg"
 width="800.000000pt" height="800.000000pt" viewBox="0 0 800.000000 800.000000"
 preserveAspectRatio="xMidYMid meet">
<metadata>
Created by potrace 1.14, written by Peter Selinger 2001-2017
</metadata>
<g transform="translate(0.000000,800.000000) scale(0.100000,-0.100000)"
fill="#000000" stroke="none">
<path d="M3806 7593 c-4 -5 -44 -11 -89 -15 -104 -9 -247 -32 -352 -56 -126
-30 -221 -56 -229 -63 -6 -5 -20 -9 -32 -9 -13 0 -25 -4 -28 -8 -3 -4 -28 -14
-55 -22 -28 -7 -51 -17 -51 -22 0 -4 -11 -8 -25 -8 -14 0 -25 -4 -25 -10 0 -5
-6 -10 -14 -10 -16 0 -117 -52 -212 -110 -37 -22 -69 -40 -73 -40 -4 0 -13 -9
-21 -20 -8 -11 -19 -20 -25 -20 -6 0 -20 -8 -31 -18 -10 -9 -41 -35 -69 -57
-77 -62 -171 -159 -278 -287 -44 -53 -127 -171 -133 -190 -3 -10 -9 -18 -13
-18 -5 0 -14 -13 -21 -30 -7 -16 -16 -30 -21 -30 -5 0 -9 -9 -9 -20 0 -11 -4
-20 -8 -20 -5 0 -14 -16 -22 -35 -8 -19 -17 -35 -22 -35 -4 0 -8 -9 -8 -20 0
-11 -4 -20 -9 -20 -5 0 -19 -24 -31 -52 -12 -29 -33 -75 -46 -102 -13 -28 -24
-56 -24 -63 0 -7 -4 -13 -10 -13 -5 0 -10 -7 -10 -15 0 -8 -4 -23 -9 -33 -5
-9 -13 -28 -18 -42 -6 -14 -15 -36 -21 -50 -42 -99 -122 -331 -122 -354 0 -9
-4 -16 -10 -16 -5 0 -10 -13 -10 -30 0 -16 -4 -30 -10 -30 -5 0 -10 -13 -10
-29 0 -17 -4 -33 -10 -36 -5 -3 -10 -17 -10 -30 0 -13 -4 -27 -10 -30 -5 -3
-10 -15 -10 -26 0 -10 -13 -61 -29 -112 -16 -50 -41 -132 -56 -182 -15 -49
-31 -100 -36 -113 -5 -13 -9 -34 -9 -47 0 -14 -4 -25 -10 -25 -5 0 -10 -13
-10 -29 0 -17 -5 -33 -10 -36 -6 -3 -10 -19 -10 -36 0 -16 -4 -29 -9 -29 -5 0
-11 -15 -14 -32 -3 -18 -10 -49 -15 -68 -14 -47 -62 -216 -74 -260 -14 -54
-26 -102 -33 -135 -4 -16 -10 -39 -15 -50 -9 -21 -18 -59 -27 -113 -3 -18 -9
-35 -14 -38 -5 -3 -9 -23 -9 -44 0 -21 -4 -41 -9 -44 -5 -3 -11 -23 -14 -43
-3 -21 -10 -56 -15 -78 -15 -61 -83 -392 -94 -460 -5 -33 -14 -85 -19 -115
-66 -377 -92 -882 -60 -1150 6 -58 14 -133 17 -168 3 -34 10 -62 15 -62 5 0 9
-20 9 -44 0 -25 5 -48 10 -51 6 -3 10 -17 10 -31 0 -52 79 -274 142 -399 17
-33 36 -70 42 -82 6 -13 14 -23 19 -23 4 0 7 -5 7 -10 0 -9 39 -74 63 -105 17
-22 48 -62 74 -94 39 -46 141 -151 148 -151 3 0 21 -15 40 -32 43 -41 49 -46
110 -88 28 -18 52 -36 55 -39 3 -3 17 -12 33 -20 15 -8 27 -18 27 -23 0 -4 9
-8 19 -8 11 0 21 -4 23 -8 4 -10 174 -92 278 -134 14 -6 33 -14 42 -19 10 -5
27 -9 37 -9 11 0 23 -4 26 -10 3 -5 19 -10 36 -10 16 0 29 -4 29 -10 0 -5 10
-10 23 -10 12 0 41 -7 65 -15 165 -58 527 -113 897 -136 525 -34 1332 17 2080
132 33 5 88 12 123 15 34 4 65 11 68 15 3 5 25 9 49 9 24 0 47 5 50 10 3 6 22
10 41 10 19 0 34 5 34 10 0 6 13 10 29 10 17 0 33 5 36 10 3 6 17 10 31 10 13
0 24 5 24 10 0 6 8 10 18 10 21 0 246 109 250 121 2 5 10 9 18 9 8 0 14 5 14
10 0 6 7 10 15 10 9 0 26 9 38 20 12 12 44 35 72 53 59 38 335 308 335 329 0
7 9 20 20 28 11 8 20 18 20 23 0 4 9 17 20 29 11 12 20 28 20 35 0 7 4 13 8
13 5 0 17 18 27 40 10 22 21 40 25 40 3 0 12 16 20 35 8 19 17 35 22 35 4 0 8
9 8 20 0 11 5 20 10 20 6 0 10 9 10 20 0 11 5 20 10 20 6 0 10 7 10 15 0 8 9
34 20 58 73 159 122 378 151 677 15 153 22 691 9 704 -5 5 -10 53 -10 106 0
53 -4 100 -9 105 -5 6 -12 42 -15 80 -9 119 -31 255 -78 480 -36 175 -39 189
-45 228 -3 20 -9 40 -14 43 -5 3 -9 23 -9 44 0 21 -4 42 -10 45 -5 3 -10 24
-10 46 0 21 -4 39 -10 39 -5 0 -10 18 -10 39 0 22 -4 43 -10 46 -5 3 -10 17
-10 30 0 13 -4 34 -9 47 -5 13 -15 50 -21 83 -7 33 -23 101 -35 150 -26 103
-33 133 -45 195 -5 25 -14 68 -20 95 -6 28 -14 70 -17 95 -3 25 -9 49 -14 55
-5 5 -9 30 -9 56 0 26 -4 50 -9 53 -5 3 -11 32 -14 63 -4 32 -9 74 -12 93 -18
116 -27 181 -41 315 -20 195 -39 311 -75 473 -5 26 -13 62 -16 80 -3 17 -9 32
-14 32 -5 0 -9 13 -9 29 0 17 -4 33 -10 36 -5 3 -10 16 -10 29 0 12 -4 26 -8
31 -4 6 -14 28 -21 50 -8 22 -29 71 -47 109 -19 38 -34 75 -34 83 0 7 -4 13
-8 13 -5 0 -14 16 -22 35 -8 19 -17 35 -22 35 -4 0 -8 9 -8 20 0 11 -4 20 -8
20 -5 0 -15 12 -23 28 -8 15 -24 37 -36 50 -13 13 -23 27 -23 32 0 12 -269
280 -281 280 -4 0 -19 11 -33 25 -14 14 -30 25 -36 25 -6 0 -20 8 -31 18 -10
11 -32 25 -47 33 -15 8 -29 17 -32 20 -9 11 -186 99 -198 99 -7 0 -12 5 -12
10 0 6 -9 10 -20 10 -11 0 -20 5 -20 10 0 6 -9 10 -20 10 -11 0 -29 5 -40 10
-11 6 -29 15 -40 20 -11 6 -28 10 -38 10 -10 0 -22 4 -27 8 -6 5 -30 14 -55
21 -25 8 -56 17 -70 22 -35 12 -223 55 -295 68 -33 6 -76 13 -95 17 -19 3 -69
8 -110 11 -41 2 -79 9 -84 14 -12 11 -719 12 -730 2z m660 -212 c5 -5 45 -12
89 -15 44 -2 112 -10 150 -16 39 -6 90 -13 115 -16 25 -3 49 -10 55 -15 5 -5
20 -9 34 -9 13 0 38 -4 55 -9 17 -6 72 -22 121 -36 50 -14 98 -30 107 -35 10
-6 27 -10 37 -10 11 0 23 -4 26 -10 3 -5 17 -10 31 -10 13 0 24 -4 24 -10 0
-5 9 -10 20 -10 11 0 20 -4 20 -10 0 -5 7 -10 15 -10 17 0 223 -107 243 -126
6 -7 21 -16 32 -19 11 -3 20 -11 20 -16 0 -5 5 -9 10 -9 6 0 24 -13 42 -30 17
-16 35 -30 40 -30 11 0 188 -177 188 -188 0 -5 12 -22 28 -39 31 -33 39 -46
99 -157 24 -44 43 -85 43 -93 0 -7 5 -13 10 -13 6 0 10 -9 10 -20 0 -11 5 -20
10 -20 6 0 10 -11 10 -24 0 -14 5 -28 10 -31 6 -3 10 -17 10 -31 0 -13 5 -24
10 -24 6 0 10 -13 10 -30 0 -16 4 -30 9 -30 5 0 11 -15 14 -32 3 -18 10 -51
15 -73 48 -199 58 -258 93 -575 5 -52 15 -126 20 -165 5 -38 12 -96 15 -127 3
-32 10 -58 15 -58 5 0 9 -24 9 -53 0 -29 4 -57 9 -63 5 -5 11 -29 14 -54 9
-75 22 -141 72 -360 9 -41 21 -84 25 -95 9 -22 18 -67 27 -132 3 -24 9 -43 14
-43 5 0 9 -18 9 -40 0 -22 5 -40 10 -40 6 0 10 -18 10 -39 0 -22 5 -43 10 -46
6 -3 10 -24 10 -46 0 -21 5 -39 10 -39 6 0 10 -11 10 -24 0 -13 9 -60 20 -105
21 -84 36 -151 51 -233 5 -27 14 -72 19 -100 31 -153 49 -271 56 -353 3 -33 9
-69 14 -80 14 -30 21 -165 26 -519 3 -212 1 -323 -6 -330 -5 -5 -10 -52 -10
-103 0 -55 -4 -93 -10 -93 -6 0 -10 -28 -10 -64 0 -36 -4 -68 -10 -71 -5 -3
-10 -18 -10 -32 0 -15 -4 -40 -9 -57 -5 -17 -15 -51 -22 -76 -22 -82 -38 -129
-69 -196 -16 -37 -30 -73 -30 -80 0 -8 -4 -14 -10 -14 -5 0 -10 -9 -10 -20 0
-11 -4 -20 -8 -20 -5 0 -15 -12 -23 -28 -15 -30 -81 -134 -89 -142 -3 -3 -17
-21 -30 -40 -13 -19 -32 -42 -42 -51 -10 -9 -18 -20 -18 -24 0 -8 -142 -147
-184 -178 -15 -12 -38 -31 -50 -42 -11 -11 -33 -26 -48 -34 -16 -8 -28 -18
-28 -23 0 -4 -7 -8 -15 -8 -8 0 -15 -3 -15 -7 0 -5 -46 -30 -103 -58 -56 -27
-104 -53 -107 -56 -3 -3 -26 -12 -52 -20 -27 -7 -48 -17 -48 -21 0 -4 -13 -8
-29 -8 -17 0 -33 -4 -36 -10 -3 -5 -19 -10 -34 -10 -15 0 -31 -4 -36 -9 -6 -5
-30 -12 -55 -15 -78 -10 -171 -23 -285 -40 -288 -44 -566 -74 -980 -107 -195
-16 -1041 -16 -1195 -1 -312 31 -663 98 -752 143 -10 5 -29 9 -43 9 -14 0 -25
5 -25 10 0 6 -11 10 -25 10 -14 0 -25 5 -25 10 0 6 -13 10 -30 10 -16 0 -30 5
-30 10 0 6 -9 10 -19 10 -11 0 -23 4 -26 10 -3 5 -15 10 -25 10 -10 0 -20 4
-22 8 -1 5 -39 26 -83 48 -44 21 -82 41 -85 44 -3 3 -17 11 -32 19 -16 8 -28
18 -28 23 0 4 -6 8 -12 8 -7 0 -25 10 -39 23 -15 12 -44 36 -65 52 -55 44
-165 154 -199 200 -16 22 -37 47 -45 55 -8 8 -21 27 -29 43 -8 15 -18 27 -23
27 -4 0 -8 9 -8 19 0 11 -4 21 -8 23 -11 4 -102 195 -102 213 0 8 -4 15 -10
15 -5 0 -10 11 -10 24 0 14 -5 28 -10 31 -5 3 -10 17 -10 30 0 13 -4 27 -10
30 -5 3 -10 22 -10 41 0 19 -4 34 -10 34 -5 0 -10 20 -10 45 0 25 -4 45 -9 45
-5 0 -12 26 -15 58 -3 31 -11 104 -17 162 -17 139 -17 510 0 685 7 77 15 175
18 218 2 42 9 77 14 77 5 0 9 29 9 64 0 36 5 68 10 71 6 3 10 30 10 60 0 30 5
57 10 60 6 3 10 28 10 55 0 27 4 51 9 54 4 3 11 27 14 53 7 52 17 101 41 203
41 179 59 258 63 293 3 20 9 37 14 37 5 0 9 18 9 40 0 22 5 40 10 40 6 0 10
18 10 40 0 22 5 40 10 40 6 0 10 16 10 35 0 19 4 35 9 35 5 0 11 15 14 33 3
17 10 48 15 67 6 19 22 78 37 130 14 52 31 111 37 130 5 19 12 50 15 68 3 18
9 35 14 38 5 3 9 18 9 35 0 16 5 29 10 29 6 0 10 13 10 29 0 17 5 33 10 36 5
3 10 17 10 31 0 13 4 32 9 42 5 9 24 64 41 122 17 58 43 140 56 182 13 42 24
86 24 97 0 11 4 23 10 26 5 3 10 19 10 36 0 16 5 29 10 29 6 0 10 14 10 30 0
17 5 30 10 30 6 0 10 14 10 30 0 17 5 30 10 30 6 0 10 11 10 24 0 14 5 28 10
31 6 3 10 16 10 29 0 12 4 26 9 32 5 5 26 56 46 114 56 156 61 169 68 176 4 4
7 16 7 26 0 10 5 18 10 18 6 0 10 9 10 20 0 11 5 20 10 20 6 0 10 6 10 14 0
19 149 309 162 314 5 2 8 10 8 18 0 8 5 14 10 14 6 0 10 6 10 13 0 6 11 25 25
41 14 16 25 33 25 37 0 4 6 14 13 21 6 7 25 31 41 53 17 22 38 47 48 56 10 9
18 19 18 23 0 14 98 113 170 172 19 16 47 41 62 56 14 16 29 28 32 28 6 0 119
73 151 97 6 5 33 19 60 33 28 14 52 28 53 33 2 4 12 7 23 7 10 0 19 5 19 10 0
6 9 10 20 10 11 0 20 5 20 10 0 6 14 10 30 10 17 0 30 5 30 10 0 6 9 10 20 10
11 0 28 4 38 9 9 6 58 22 107 36 50 14 104 30 121 35 17 6 42 10 57 10 14 0
29 5 32 10 3 6 28 10 54 10 26 0 51 4 56 9 10 9 37 12 227 29 47 4 90 10 94
15 11 10 578 9 590 -2z"/>
<path d="M3167 7126 c-78 -29 -111 -81 -105 -165 5 -62 44 -157 81 -197 14
-14 37 -38 51 -53 76 -81 181 -91 242 -24 19 20 34 45 34 54 0 10 5 19 12 21
8 3 12 35 12 99 0 82 -4 101 -25 139 -13 25 -34 55 -45 66 -58 60 -181 88
-257 60z"/>
<path d="M5611 6676 c-62 -17 -111 -62 -111 -103 0 -35 18 -83 32 -83 4 0 8
-5 8 -11 0 -15 70 -79 86 -79 7 0 14 -3 16 -7 7 -17 96 -53 144 -59 61 -7 115
14 133 52 17 38 13 124 -8 169 -19 42 -55 85 -71 85 -5 0 -15 6 -22 13 -16 16
-97 37 -135 36 -15 -1 -48 -7 -72 -13z"/>
<path d="M2445 6332 c-36 -12 -65 -36 -65 -54 0 -9 -4 -20 -10 -23 -5 -3 -10
-28 -10 -55 0 -27 5 -52 10 -55 6 -3 10 -15 10 -25 0 -18 10 -34 50 -78 8 -10
29 -23 45 -31 17 -7 38 -17 47 -22 24 -12 168 -11 168 1 0 6 10 10 22 10 26 0
88 64 88 91 0 30 -38 89 -86 135 -75 71 -213 125 -269 106z"/>
<path d="M3075 5590 c-3 -5 -13 -10 -21 -10 -21 0 -94 -49 -132 -90 -19 -19
-49 -65 -68 -102 -32 -64 -34 -73 -34 -172 0 -90 4 -114 24 -160 14 -31 31
-63 38 -72 17 -21 81 -86 100 -100 82 -63 240 -84 335 -43 111 47 160 93 211
199 35 70 37 81 37 170 0 94 -24 200 -46 200 -5 0 -9 6 -9 14 0 14 -75 94
-121 129 -13 10 -36 21 -52 24 -15 3 -30 10 -33 14 -7 13 -221 11 -229 -1z"/>
<path d="M5690 5591 c-8 -5 -35 -19 -60 -31 -81 -42 -152 -127 -180 -219 -47
-149 -11 -300 96 -408 82 -81 156 -113 265 -113 172 1 308 112 368 301 37 116
-14 285 -116 383 -39 37 -56 48 -135 87 -22 11 -218 11 -238 0z"/>
<path d="M4300 5060 c-8 -5 -41 -10 -72 -10 -32 0 -58 -4 -58 -10 0 -5 -7 -10
-16 -10 -20 0 -53 -36 -60 -66 -6 -25 11 -146 28 -204 14 -45 51 -124 61 -128
4 -2 7 -10 7 -18 0 -51 194 -214 255 -214 8 0 15 -4 15 -10 0 -5 25 -10 55
-10 34 0 55 -4 55 -11 0 -7 13 -9 38 -5 20 4 58 10 85 12 26 3 47 10 47 15 0
5 14 9 30 9 17 0 30 5 30 10 0 6 9 10 20 10 11 0 20 4 20 9 0 5 8 12 18 15 21
7 122 102 122 115 0 5 6 16 13 23 18 20 46 70 65 118 27 69 37 123 37 208 0
83 -2 95 -20 105 -61 36 -174 49 -485 53 -173 3 -281 0 -290 -6z"/>
<path d="M2372 3952 c-27 -25 -32 -36 -32 -76 0 -49 20 -126 32 -126 5 0 8 -7
8 -15 0 -8 5 -15 10 -15 6 0 10 -6 10 -12 0 -23 94 -88 126 -88 55 0 148 113
178 217 13 41 -18 90 -73 117 -43 22 -64 26 -139 26 -83 0 -90 -2 -120 -28z"/>
<path d="M4204 3130 c-68 -21 -184 -171 -184 -239 0 -32 48 -111 67 -111 7 0
13 -4 13 -10 0 -5 11 -10 24 -10 14 0 28 -4 31 -10 13 -21 155 0 155 22 0 5 5
8 11 8 6 0 16 6 22 13 29 32 37 61 37 141 0 68 -4 92 -22 126 -35 66 -88 90
-154 70z"/>
<path d="M6400 3000 c0 -5 -11 -10 -24 -10 -55 0 -137 -147 -120 -217 16 -65
98 -183 128 -183 6 0 18 -9 26 -20 8 -11 20 -20 27 -20 7 0 21 -4 31 -9 107
-54 200 -53 258 6 30 30 34 39 34 89 0 54 -32 137 -66 172 -8 7 -14 17 -14 21
0 8 -55 66 -94 99 -42 36 -94 62 -121 62 -14 0 -25 5 -25 10 0 6 -9 10 -20 10
-11 0 -20 -4 -20 -10z"/>
<path d="M1405 1943 c-59 -31 -75 -56 -75 -122 0 -33 5 -63 10 -66 6 -3 10
-15 10 -26 0 -10 5 -19 10 -19 6 0 10 -7 10 -15 0 -8 5 -15 10 -15 6 0 10 -7
10 -15 0 -21 134 -151 179 -174 47 -24 103 -35 137 -27 31 8 104 78 104 100 0
9 5 16 10 16 6 0 10 32 10 75 0 43 -4 75 -10 75 -5 0 -10 9 -10 20 0 11 -4 20
-10 20 -5 0 -10 6 -10 13 0 25 -79 96 -141 127 -97 50 -189 62 -244 33z"/>
<path d="M4725 1338 c-34 -19 -73 -59 -83 -87 -32 -89 -35 -110 -23 -168 22
-100 38 -129 89 -154 40 -21 59 -24 156 -24 105 0 206 18 206 37 0 4 6 8 13 8
6 0 19 11 28 23 50 70 21 153 -97 273 -78 79 -128 104 -205 104 -35 0 -73 -6
-84 -12z"/>
</g>
</svg>
